<svg xmlns:xlink="http://www.w3.org/1999/xlink" xmlns="http://www.w3.org/2000/svg" width="114" height="114" viewBox="0 0 114 114" fill="none">
<path d="M96.9071 16.7195C87.6141 7.36574 75.3487 1.54739 62.2255 0.267539C49.1024 -1.01231 35.9439 2.32653 25.0187 9.70845C14.0934 17.0904 6.086 28.0528 2.37693 40.7057C-1.33213 53.3586 -0.51041 66.9092 4.70043 79.0212C5.24353 80.1469 5.42173 81.4141 5.21017 82.646L0.226024 106.604C0.0339994 107.522 0.0732112 108.474 0.340136 109.374C0.60706 110.273 1.09333 111.093 1.75525 111.758C2.29787 112.297 2.94394 112.72 3.65452 113.002C4.3651 113.284 5.12548 113.42 5.88983 113.4H7.02259L31.2637 108.53C32.4957 108.381 33.7451 108.557 34.8885 109.039C47.0005 114.25 60.5511 115.072 73.2041 111.363C85.857 107.654 96.8194 99.6463 104.201 88.7211C111.583 77.7958 114.922 64.6374 113.642 51.5143C112.362 38.3912 106.544 26.1258 97.1903 16.8328L96.9071 16.7195ZM34.2088 62.4263C33.0886 62.4263 31.9936 62.0941 31.0622 61.4718C30.1308 60.8494 29.4048 59.9648 28.9762 58.9299C28.5475 57.895 28.4353 56.7562 28.6539 55.6575C28.8724 54.5589 29.4118 53.5497 30.2039 52.7576C30.996 51.9655 32.0052 51.4261 33.1039 51.2075C34.2026 50.989 35.3414 51.1011 36.3763 51.5298C37.4112 51.9585 38.2958 52.6844 38.9181 53.6158C39.5405 54.5473 39.8726 55.6423 39.8726 56.7625C39.8726 58.2646 39.2759 59.7052 38.2138 60.7674C37.1516 61.8296 35.711 62.4263 34.2088 62.4263ZM56.8641 62.4263C55.7439 62.4263 54.6488 62.0941 53.7174 61.4718C52.786 60.8494 52.0601 59.9648 51.6314 58.9299C51.2027 57.895 51.0905 56.7562 51.3091 55.6575C51.5276 54.5589 52.067 53.5497 52.8591 52.7576C53.6512 51.9655 54.6604 51.4261 55.7591 51.2075C56.8578 50.989 57.9966 51.1011 59.0315 51.5298C60.0664 51.9585 60.951 52.6844 61.5733 53.6158C62.1957 54.5473 62.5279 55.6423 62.5279 56.7625C62.5279 58.2646 61.9311 59.7052 60.869 60.7674C59.8068 61.8296 58.3662 62.4263 56.8641 62.4263ZM79.5193 62.4263C78.3991 62.4263 77.304 62.0941 76.3726 61.4718C75.4412 60.8494 74.7153 59.9648 74.2866 58.9299C73.8579 57.895 73.7458 56.7562 73.9643 55.6575C74.1828 54.5589 74.7223 53.5497 75.5144 52.7576C76.3064 51.9655 77.3156 51.4261 78.4143 51.2075C79.513 50.989 80.6518 51.1011 81.6867 51.5298C82.7216 51.9585 83.6062 52.6844 84.2285 53.6158C84.8509 54.5473 85.1831 55.6423 85.1831 56.7625C85.1831 58.2646 84.5863 59.7052 83.5242 60.7674C82.462 61.8296 81.0214 62.4263 79.5193 62.4263Z" fill="white" fill-opacity="0.82"/>
<script xmlns=""/></svg>